<svg width="41" height="41" viewBox="0 0 41 41" fill="none" xmlns="http://www.w3.org/2000/svg">
<path d="M20.5 0C9.225 0 0 9.01316 0 20.0293C0 31.0453 9.225 40.0585 20.5 40.0585C31.775 40.0585 41 31.0453 41 20.0293C41 9.01316 31.775 0 20.5 0ZM20.5 5.00731C29.0075 5.00731 35.875 11.7171 35.875 20.0293C35.875 28.3414 29.0075 35.0512 20.5 35.0512C11.9925 35.0512 5.125 28.3414 5.125 20.0293C5.125 11.7171 11.9925 5.00731 20.5 5.00731ZM17.9375 10.0146V21.1309L18.7575 21.7818L21.32 24.2855L23.0625 26.1882L26.7525 22.583L24.805 20.8805L23.0625 19.178V10.1148H17.9375V10.0146Z" fill="#DC8A3E"/>
</svg>
